<?xml version="1.0" standalone="no"?><!DOCTYPE svg PUBLIC "-//W3C//DTD SVG 1.1//EN" "http://www.w3.org/Graphics/SVG/1.1/DTD/svg11.dtd"><svg t="1754972784961" class="icon" viewBox="0 0 1024 1024" version="1.1" xmlns="http://www.w3.org/2000/svg" p-id="7206" xmlns:xlink="http://www.w3.org/1999/xlink" width="200" height="200"><path d="M414.142161 0h54.084507c179.113465 9.187155 343.934197 143.158085 385.471099 317.454423 29.450817 113.54862 3.995042 236.414197-60.113127 333.636507 59.983324 61.295775 120.384901 121.91369 180.224 183.209464 39.344676 33.460282 28.484507 90.919662 22.571268 136.033352-32.205521 59.50738-122.173296 72.401127-170.041691 24.128902-70.309859-65.002366-138.41307-132.326761-208.030647-198.165634-93.414761 38.551437-199.62231 48.142423-296.887888 18.114704C158.64695 767.105803 33.877598 614.34231 21.632865 445.396732v-53.47876C31.815175 187.593915 210.395006 12.605296 414.142161 0z m-21.691493 61.670761C213.82757 82.641127 66.357147 255.278873 80.231626 438.041239c6.735324 191.459155 186.988169 353.22231 375.707042 340.025691 191.444732-4.370028 359.020169-185.747831 343.515944-379.918423-7.28338-202.896225-208.968113-368.481352-407.003944-336.477746zM670.64695 757.70231c60.935211 57.444958 121.192563 115.437972 182.416225 172.479098 19.51369 20.335775 53.449915 30.921915 77.275944 11.264 24.662535-17.033014 13.715831-52.901859-4.427718-70.497352-57.762254-60.329465-117.457127-118.740732-175.493409-178.666366A2795.40462 2795.40462 0 0 1 670.64695 757.70231z" fill="#d81e06" p-id="7207"></path><path d="M259.388358 195.007099c25.902873-25.6 52.598986 21.114592 23.840451 37.585126-72.949183 74.506817-93.688789 203.069296-41.07538 295.806198 10.35538 19.210817 32.003606 52.440338-0.649014 62.925521-32.522817-7.759324-41.334986-46.296338-55.454648-73.266479-42.113803-107.318085-18.662761-252.105915 73.338591-323.050366z m32.407437 396.446647c31.354592-2.451831 55.743099 30.965183 84.342986 42.863775 19.412732 24.244282-12.201465 57.055549-33.965071 37.671662-26.898028-11.43707-84.617014-42.546479-50.377915-80.535437z" fill="#d81e06" p-id="7208"></path></svg>